<svg
  width="304"
  height="42"
  viewBox="0 0 304 42"
  fill="none"
  xmlns="http://www.w3.org/2000/svg"
>
  <path
    d="M18.8613 28.2539V33H5.92383V28.2539H18.8613ZM8.12109 7.40625V33H1.95117V7.40625H8.12109ZM30.5726 33.3516C29.0257 33.3516 27.6429 33.1113 26.4241 32.6309C25.2054 32.1387 24.1741 31.4648 23.3304 30.6094C22.4984 29.7539 21.8597 28.7695 21.4144 27.6562C20.9808 26.543 20.764 25.3652 20.764 24.123V23.4551C20.764 22.0605 20.9573 20.7715 21.3441 19.5879C21.7308 18.3926 22.305 17.3496 23.0667 16.459C23.8284 15.5684 24.7835 14.877 25.932 14.3848C27.0804 13.8809 28.4163 13.6289 29.9398 13.6289C31.2874 13.6289 32.4945 13.8457 33.5609 14.2793C34.6273 14.7129 35.5296 15.334 36.2679 16.1426C37.0179 16.9512 37.5863 17.9297 37.973 19.0781C38.3714 20.2266 38.5706 21.5156 38.5706 22.9453V25.3535H23.0316V21.6445H32.7874V21.1875C32.7991 20.5547 32.6878 20.0156 32.4534 19.5703C32.2308 19.125 31.9027 18.7852 31.4691 18.5508C31.0355 18.3164 30.5081 18.1992 29.887 18.1992C29.2425 18.1992 28.7093 18.3398 28.2874 18.6211C27.8773 18.9023 27.555 19.2891 27.3206 19.7812C27.098 20.2617 26.9398 20.8184 26.846 21.4512C26.7523 22.084 26.7054 22.752 26.7054 23.4551V24.123C26.7054 24.8262 26.7991 25.4648 26.9866 26.0391C27.1859 26.6133 27.4671 27.1055 27.8304 27.5156C28.2054 27.9141 28.6507 28.2246 29.1663 28.4473C29.6937 28.6699 30.2913 28.7812 30.9593 28.7812C31.7679 28.7812 32.5648 28.6289 33.3499 28.3242C34.1351 28.0195 34.8089 27.5156 35.3714 26.8125L38.0609 30.0117C37.6741 30.5625 37.1234 31.0957 36.4085 31.6113C35.7054 32.127 34.8616 32.5488 33.8773 32.877C32.8929 33.1934 31.7913 33.3516 30.5726 33.3516ZM40.4205 23.6836V23.3145C40.4205 21.9199 40.6198 20.6367 41.0182 19.4648C41.4166 18.2812 42.0026 17.2559 42.776 16.3887C43.5495 15.5215 44.5045 14.8477 45.6413 14.3672C46.778 13.875 48.0905 13.6289 49.5788 13.6289C51.0788 13.6289 52.3971 13.875 53.5338 14.3672C54.6823 14.8477 55.6432 15.5215 56.4166 16.3887C57.1901 17.2559 57.776 18.2812 58.1745 19.4648C58.5729 20.6367 58.7721 21.9199 58.7721 23.3145V23.6836C58.7721 25.0664 58.5729 26.3496 58.1745 27.5332C57.776 28.7051 57.1901 29.7305 56.4166 30.6094C55.6432 31.4766 54.6881 32.1504 53.5514 32.6309C52.4147 33.1113 51.1022 33.3516 49.6139 33.3516C48.1256 33.3516 46.8073 33.1113 45.6588 32.6309C44.5104 32.1504 43.5495 31.4766 42.776 30.6094C42.0026 29.7305 41.4166 28.7051 41.0182 27.5332C40.6198 26.3496 40.4205 25.0664 40.4205 23.6836ZM46.3444 23.3145V23.6836C46.3444 24.3984 46.3971 25.0664 46.5026 25.6875C46.608 26.3086 46.7838 26.8535 47.0299 27.3223C47.276 27.7793 47.61 28.1367 48.0319 28.3945C48.4538 28.6523 48.9811 28.7812 49.6139 28.7812C50.235 28.7812 50.7506 28.6523 51.1608 28.3945C51.5827 28.1367 51.9166 27.7793 52.1627 27.3223C52.4088 26.8535 52.5846 26.3086 52.6901 25.6875C52.7955 25.0664 52.8483 24.3984 52.8483 23.6836V23.3145C52.8483 22.623 52.7955 21.9727 52.6901 21.3633C52.5846 20.7422 52.4088 20.1973 52.1627 19.7285C51.9166 19.248 51.5827 18.873 51.1608 18.6035C50.7389 18.334 50.2116 18.1992 49.5788 18.1992C48.9577 18.1992 48.4362 18.334 48.0143 18.6035C47.6041 18.873 47.276 19.248 47.0299 19.7285C46.7838 20.1973 46.608 20.7422 46.5026 21.3633C46.3971 21.9727 46.3444 22.623 46.3444 23.3145ZM67.4072 18.041V33H61.4834V13.9805H67.038L67.4072 18.041ZM66.7041 22.8398L65.3154 22.875C65.3154 21.4219 65.4912 20.127 65.8427 18.9902C66.1943 17.8418 66.6923 16.8691 67.3369 16.0723C67.9814 15.2754 68.749 14.6719 69.6396 14.2617C70.542 13.8398 71.5439 13.6289 72.6455 13.6289C73.5244 13.6289 74.3271 13.7578 75.0537 14.0156C75.792 14.2734 76.4248 14.6895 76.9521 15.2637C77.4912 15.8379 77.9013 16.5996 78.1826 17.5488C78.4755 18.4863 78.622 19.6465 78.622 21.0293V33H72.663V21.0117C72.663 20.25 72.5576 19.6699 72.3466 19.2715C72.1357 18.8613 71.831 18.5801 71.4326 18.4277C71.0341 18.2754 70.5478 18.1992 69.9736 18.1992C69.3642 18.1992 68.8486 18.3164 68.4267 18.5508C68.0048 18.7852 67.665 19.1133 67.4072 19.5352C67.1611 19.9453 66.9795 20.4316 66.8623 20.9941C66.7568 21.5566 66.7041 22.1719 66.7041 22.8398ZM87.8899 6V33H81.9661V6H87.8899ZM87.1868 22.8398L85.7981 22.875C85.7981 21.5391 85.9622 20.3086 86.2903 19.1836C86.6184 18.0586 87.0872 17.0801 87.6966 16.248C88.3059 15.416 89.0384 14.7715 89.8938 14.3145C90.7493 13.8574 91.6985 13.6289 92.7415 13.6289C93.679 13.6289 94.5345 13.7637 95.3079 14.0332C96.093 14.3027 96.7669 14.7363 97.3294 15.334C97.9036 15.9316 98.343 16.7109 98.6477 17.6719C98.9641 18.6328 99.1223 19.8047 99.1223 21.1875V33H93.1634V21.1523C93.1634 20.3789 93.052 19.7812 92.8294 19.3594C92.6184 18.9258 92.3138 18.627 91.9153 18.4629C91.5169 18.2871 91.0305 18.1992 90.4563 18.1992C89.7649 18.1992 89.2024 18.3164 88.7688 18.5508C88.3352 18.7852 88.0013 19.1133 87.7669 19.5352C87.5442 19.9453 87.3919 20.4316 87.3098 20.9941C87.2278 21.5566 87.1868 22.1719 87.1868 22.8398ZM112.468 28.2188V20.3789C112.468 19.8398 112.392 19.377 112.24 18.9902C112.088 18.6035 111.847 18.3047 111.519 18.0938C111.191 17.8711 110.752 17.7598 110.201 17.7598C109.755 17.7598 109.375 17.8359 109.058 17.9883C108.742 18.1406 108.502 18.3691 108.338 18.6738C108.173 18.9785 108.091 19.3652 108.091 19.834H102.168C102.168 18.9551 102.361 18.1406 102.748 17.3906C103.146 16.6289 103.709 15.9668 104.435 15.4043C105.173 14.8418 106.052 14.4082 107.072 14.1035C108.103 13.7871 109.252 13.6289 110.517 13.6289C112.029 13.6289 113.377 13.8809 114.56 14.3848C115.755 14.8887 116.699 15.6445 117.39 16.6523C118.082 17.6484 118.427 18.9023 118.427 20.4141V28.2012C118.427 29.4434 118.498 30.3867 118.638 31.0312C118.779 31.6641 118.978 32.2207 119.236 32.7012V33H113.295C113.013 32.4141 112.802 31.6992 112.662 30.8555C112.533 30 112.468 29.1211 112.468 28.2188ZM113.189 21.3809L113.224 24.5449H110.605C110.054 24.5449 109.586 24.6211 109.199 24.7734C108.824 24.9258 108.519 25.1367 108.285 25.4062C108.062 25.6641 107.898 25.957 107.793 26.2852C107.699 26.6133 107.652 26.959 107.652 27.3223C107.652 27.6738 107.734 27.9902 107.898 28.2715C108.074 28.541 108.308 28.752 108.601 28.9043C108.894 29.0566 109.222 29.1328 109.586 29.1328C110.242 29.1328 110.798 29.0098 111.255 28.7637C111.724 28.5059 112.082 28.1953 112.328 27.832C112.574 27.4688 112.697 27.1289 112.697 26.8125L113.998 29.2383C113.763 29.707 113.494 30.1816 113.189 30.6621C112.896 31.1426 112.527 31.5879 112.082 31.998C111.648 32.3965 111.115 32.7246 110.482 32.9824C109.849 33.2285 109.082 33.3516 108.179 33.3516C107.007 33.3516 105.929 33.1113 104.945 32.6309C103.972 32.1504 103.193 31.4824 102.607 30.627C102.021 29.7598 101.728 28.7637 101.728 27.6387C101.728 26.6543 101.904 25.7754 102.255 25.002C102.619 24.2285 103.164 23.5723 103.89 23.0332C104.617 22.4941 105.543 22.084 106.668 21.8027C107.793 21.5215 109.117 21.3809 110.64 21.3809H113.189ZM127.871 18.6914V33H121.947V13.9805H127.484L127.871 18.6914ZM133.496 13.8398L133.391 19.3418C133.156 19.3184 132.84 19.2891 132.441 19.2539C132.043 19.2188 131.709 19.2012 131.439 19.2012C130.748 19.2012 130.15 19.2832 129.646 19.4473C129.154 19.5996 128.744 19.834 128.416 20.1504C128.1 20.4551 127.865 20.8418 127.713 21.3105C127.572 21.7793 127.508 22.3242 127.519 22.9453L126.447 22.2422C126.447 20.9648 126.57 19.8047 126.816 18.7617C127.074 17.707 127.437 16.7988 127.906 16.0371C128.375 15.2637 128.943 14.6719 129.611 14.2617C130.279 13.8398 131.029 13.6289 131.861 13.6289C132.154 13.6289 132.441 13.6465 132.723 13.6816C133.016 13.7168 133.273 13.7695 133.496 13.8398ZM146.297 28.6406V6H152.256V33H146.912L146.297 28.6406ZM134.625 23.7188V23.3496C134.625 21.9082 134.783 20.5957 135.1 19.4121C135.416 18.2168 135.885 17.1914 136.506 16.3359C137.127 15.4688 137.901 14.8008 138.826 14.332C139.752 13.8633 140.819 13.6289 142.026 13.6289C143.104 13.6289 144.047 13.8809 144.856 14.3848C145.664 14.877 146.356 15.5684 146.93 16.459C147.504 17.3496 147.973 18.3926 148.336 19.5879C148.699 20.7715 148.975 22.0488 149.162 23.4199V23.8594C148.975 25.1484 148.699 26.3672 148.336 27.5156C147.973 28.6523 147.504 29.6602 146.93 30.5391C146.356 31.418 145.658 32.1094 144.838 32.6133C144.03 33.1055 143.08 33.3516 141.99 33.3516C140.783 33.3516 139.717 33.1113 138.791 32.6309C137.877 32.1504 137.11 31.4766 136.489 30.6094C135.879 29.7422 135.416 28.7227 135.1 27.5508C134.783 26.3789 134.625 25.1016 134.625 23.7188ZM140.549 23.3496V23.7188C140.549 24.4336 140.596 25.0957 140.69 25.7051C140.783 26.3145 140.942 26.8535 141.164 27.3223C141.399 27.7793 141.703 28.1367 142.078 28.3945C142.465 28.6523 142.94 28.7812 143.502 28.7812C144.264 28.7812 144.891 28.5996 145.383 28.2363C145.887 27.873 146.256 27.3574 146.49 26.6895C146.737 26.0215 146.842 25.2363 146.807 24.334V22.9453C146.83 22.1719 146.778 21.4922 146.649 20.9062C146.52 20.3086 146.315 19.8105 146.033 19.4121C145.764 19.0137 145.418 18.7148 144.996 18.5156C144.586 18.3047 144.1 18.1992 143.537 18.1992C142.987 18.1992 142.518 18.3281 142.131 18.5859C141.756 18.8438 141.451 19.207 141.217 19.6758C140.983 20.1328 140.813 20.6777 140.707 21.3105C140.602 21.9316 140.549 22.6113 140.549 23.3496ZM178.403 26.1973C178.403 25.7988 178.345 25.4414 178.227 25.125C178.11 24.7969 177.893 24.4922 177.577 24.2109C177.261 23.9297 176.804 23.6484 176.206 23.3672C175.62 23.0742 174.847 22.7695 173.886 22.4531C172.761 22.0781 171.677 21.6562 170.634 21.1875C169.591 20.707 168.659 20.1504 167.839 19.5176C167.018 18.873 166.368 18.123 165.888 17.2676C165.407 16.4004 165.167 15.3926 165.167 14.2441C165.167 13.1426 165.413 12.1523 165.905 11.2734C166.397 10.3828 167.083 9.62695 167.962 9.00586C168.852 8.37305 169.895 7.89258 171.091 7.56445C172.286 7.22461 173.593 7.05469 175.011 7.05469C176.886 7.05469 178.538 7.38281 179.968 8.03906C181.409 8.68359 182.534 9.60352 183.343 10.7988C184.163 11.9824 184.573 13.3828 184.573 15H178.438C178.438 14.3555 178.304 13.7871 178.034 13.2949C177.776 12.8027 177.384 12.416 176.856 12.1348C176.329 11.8535 175.667 11.7129 174.87 11.7129C174.097 11.7129 173.446 11.8301 172.919 12.0645C172.391 12.2988 171.993 12.6152 171.724 13.0137C171.454 13.4004 171.319 13.8281 171.319 14.2969C171.319 14.6836 171.425 15.0352 171.636 15.3516C171.858 15.6562 172.169 15.9434 172.567 16.2129C172.977 16.4824 173.47 16.7402 174.044 16.9863C174.63 17.2324 175.286 17.4727 176.013 17.707C177.372 18.1406 178.579 18.627 179.634 19.166C180.7 19.6934 181.597 20.2969 182.323 20.9766C183.061 21.6445 183.618 22.4062 183.993 23.2617C184.38 24.1172 184.573 25.084 184.573 26.1621C184.573 27.3105 184.35 28.3301 183.905 29.2207C183.46 30.1113 182.821 30.8672 181.989 31.4883C181.157 32.0977 180.161 32.5605 179.001 32.877C177.841 33.1934 176.546 33.3516 175.116 33.3516C173.804 33.3516 172.509 33.1875 171.231 32.8594C169.966 32.5195 168.817 32.0039 167.786 31.3125C166.755 30.6094 165.929 29.7129 165.307 28.623C164.698 27.5215 164.393 26.2148 164.393 24.7031H170.581C170.581 25.4531 170.681 26.0859 170.88 26.6016C171.079 27.1172 171.372 27.5332 171.759 27.8496C172.145 28.1543 172.62 28.377 173.182 28.5176C173.745 28.6465 174.39 28.7109 175.116 28.7109C175.901 28.7109 176.534 28.5996 177.015 28.377C177.495 28.1426 177.847 27.8379 178.069 27.4629C178.292 27.0762 178.403 26.6543 178.403 26.1973ZM195.687 28.7812C196.238 28.7812 196.706 28.6816 197.093 28.4824C197.491 28.2715 197.79 27.9785 197.989 27.6035C198.2 27.2168 198.3 26.7539 198.288 26.2148H203.861C203.872 27.6445 203.521 28.8984 202.806 29.9766C202.103 31.043 201.142 31.875 199.923 32.4727C198.716 33.0586 197.351 33.3516 195.827 33.3516C194.339 33.3516 193.038 33.1113 191.925 32.6309C190.812 32.1387 189.88 31.459 189.13 30.5918C188.392 29.7129 187.835 28.6875 187.46 27.5156C187.097 26.3438 186.915 25.0723 186.915 23.7012V23.2969C186.915 21.9258 187.097 20.6543 187.46 19.4824C187.835 18.2988 188.392 17.2734 189.13 16.4062C189.88 15.5273 190.806 14.8477 191.907 14.3672C193.021 13.875 194.316 13.6289 195.792 13.6289C197.374 13.6289 198.769 13.9277 199.976 14.5254C201.195 15.123 202.15 15.9902 202.841 17.127C203.532 18.2637 203.872 19.6406 203.861 21.2578H198.288C198.3 20.6836 198.212 20.168 198.025 19.7109C197.837 19.2539 197.544 18.8906 197.146 18.6211C196.759 18.3398 196.261 18.1992 195.652 18.1992C195.042 18.1992 194.55 18.334 194.175 18.6035C193.8 18.873 193.513 19.248 193.314 19.7285C193.126 20.1973 192.997 20.7363 192.927 21.3457C192.868 21.9551 192.839 22.6055 192.839 23.2969V23.7012C192.839 24.4043 192.868 25.0664 192.927 25.6875C192.997 26.2969 193.132 26.8359 193.331 27.3047C193.53 27.7617 193.818 28.125 194.193 28.3945C194.568 28.6523 195.066 28.7812 195.687 28.7812ZM212.373 6V33H206.449V6H212.373ZM211.669 22.8398L210.281 22.875C210.281 21.5391 210.445 20.3086 210.773 19.1836C211.101 18.0586 211.57 17.0801 212.179 16.248C212.789 15.416 213.521 14.7715 214.376 14.3145C215.232 13.8574 216.181 13.6289 217.224 13.6289C218.162 13.6289 219.017 13.7637 219.791 14.0332C220.576 14.3027 221.25 14.7363 221.812 15.334C222.386 15.9316 222.826 16.7109 223.13 17.6719C223.447 18.6328 223.605 19.8047 223.605 21.1875V33H217.646V21.1523C217.646 20.3789 217.535 19.7812 217.312 19.3594C217.101 18.9258 216.796 18.627 216.398 18.4629C216 18.2871 215.513 18.1992 214.939 18.1992C214.248 18.1992 213.685 18.3164 213.251 18.5508C212.818 18.7852 212.484 19.1133 212.25 19.5352C212.027 19.9453 211.875 20.4316 211.792 20.9941C211.71 21.5566 211.669 22.1719 211.669 22.8398ZM232.855 27.3398L236.371 13.9805H240.08L238.762 20.6777L235.281 33H232.31L232.855 27.3398ZM231.467 13.9805L233.646 27.2344L233.892 33H230.289L225.789 13.9805H231.467ZM243.209 26.9531L245.406 13.9805H251.084L246.619 33H243.015L243.209 26.9531ZM240.502 13.9805L244.053 27.3047L244.598 33H241.592L238.181 20.7129L236.916 13.9805H240.502ZM263.287 28.2188V20.3789C263.287 19.8398 263.211 19.377 263.059 18.9902C262.906 18.6035 262.666 18.3047 262.338 18.0938C262.01 17.8711 261.57 17.7598 261.02 17.7598C260.574 17.7598 260.194 17.8359 259.877 17.9883C259.561 18.1406 259.32 18.3691 259.156 18.6738C258.992 18.9785 258.91 19.3652 258.91 19.834H252.986C252.986 18.9551 253.18 18.1406 253.567 17.3906C253.965 16.6289 254.527 15.9668 255.254 15.4043C255.992 14.8418 256.871 14.4082 257.891 14.1035C258.922 13.7871 260.07 13.6289 261.336 13.6289C262.848 13.6289 264.195 13.8809 265.379 14.3848C266.574 14.8887 267.518 15.6445 268.209 16.6523C268.901 17.6484 269.246 18.9023 269.246 20.4141V28.2012C269.246 29.4434 269.317 30.3867 269.457 31.0312C269.598 31.6641 269.797 32.2207 270.055 32.7012V33H264.113C263.832 32.4141 263.621 31.6992 263.481 30.8555C263.352 30 263.287 29.1211 263.287 28.2188ZM264.008 21.3809L264.043 24.5449H261.424C260.873 24.5449 260.404 24.6211 260.018 24.7734C259.643 24.9258 259.338 25.1367 259.104 25.4062C258.881 25.6641 258.717 25.957 258.611 26.2852C258.518 26.6133 258.471 26.959 258.471 27.3223C258.471 27.6738 258.553 27.9902 258.717 28.2715C258.893 28.541 259.127 28.752 259.42 28.9043C259.713 29.0566 260.041 29.1328 260.404 29.1328C261.061 29.1328 261.617 29.0098 262.074 28.7637C262.543 28.5059 262.901 28.1953 263.147 27.832C263.393 27.4688 263.516 27.1289 263.516 26.8125L264.817 29.2383C264.582 29.707 264.313 30.1816 264.008 30.6621C263.715 31.1426 263.346 31.5879 262.901 31.998C262.467 32.3965 261.934 32.7246 261.301 32.9824C260.668 33.2285 259.901 33.3516 258.998 33.3516C257.826 33.3516 256.748 33.1113 255.764 32.6309C254.791 32.1504 254.012 31.4824 253.426 30.627C252.84 29.7598 252.547 28.7637 252.547 27.6387C252.547 26.6543 252.723 25.7754 253.074 25.002C253.438 24.2285 253.983 23.5723 254.709 23.0332C255.436 22.4941 256.361 22.084 257.486 21.8027C258.611 21.5215 259.936 21.3809 261.459 21.3809H264.008ZM278.69 18.6914V33H272.766V13.9805H278.303L278.69 18.6914ZM284.315 13.8398L284.209 19.3418C283.975 19.3184 283.659 19.2891 283.26 19.2539C282.862 19.2188 282.528 19.2012 282.258 19.2012C281.567 19.2012 280.969 19.2832 280.465 19.4473C279.973 19.5996 279.563 19.834 279.235 20.1504C278.918 20.4551 278.684 20.8418 278.532 21.3105C278.391 21.7793 278.327 22.3242 278.338 22.9453L277.266 22.2422C277.266 20.9648 277.389 19.8047 277.635 18.7617C277.893 17.707 278.256 16.7988 278.725 16.0371C279.194 15.2637 279.762 14.6719 280.43 14.2617C281.098 13.8398 281.848 13.6289 282.68 13.6289C282.973 13.6289 283.26 13.6465 283.541 13.6816C283.834 13.7168 284.092 13.7695 284.315 13.8398ZM302.179 28.4297V33H287.448V28.4297H302.179ZM302.003 17.1797L290.102 33H286.042V29.6953L297.925 13.9805H302.003V17.1797ZM300.052 13.9805V18.5508H286.393V13.9805H300.052Z"
    fill="currentColor"
  />
</svg>